<svg id="Слой_1" xmlns="http://www.w3.org/2000/svg" viewBox="0 0 500 500"><style>.st0{display:none;fill:#10112b}.st1{fill:#b19c69}.st2{fill:#fff}.st3{fill:#d1d3d4}.st3,.st4{display:none}.st5{display:inline;fill:#d1d3d4}</style><path class="st0" d="M0 0h500v500H0z"/><path class="st1" d="M311.6 120.5h43.8v4.6h-43.8zM307.3 107.3h18v4.6h-18zM307.3 134.8h18v4.6h-18zM145.9 119.9h43.8v4.6h-43.8zM175.9 106.8h18v4.6h-18zM175.9 134.3h18v4.6h-18zM0 183.7h500v3.7H0zM0 310.9h123.7v3.7H0zM176.8 406.5h47.3v3.7h-47.3zM277 406.5h47.3v3.7H277zM376.3 310.9H500v3.7H376.3z"/><g><path class="st2" d="M249.6 79.5c-23.9 0-43.3 19.4-43.3 43.3s19.5 43.3 43.3 43.3c23.9 0 43.4-19.4 43.4-43.3 0-24-19.5-43.3-43.4-43.3zm15 64h-30v-5.7h30v5.7zm-1.8-7h-26.4L225 115.9l12.8 3.7 11.8-19.8 11.9 19.8 12.8-3.7-11.5 20.6zM262 417c0 1.9-1.6 3.6-3.6 3.6-1.9 0-3.6-1.6-3.6-3.6 0-.7.2-1.3.6-1.9l-5.7-5.7-5.7 5.7-.2-.2c.5.5.8 1.3.8 2.1 0 1.9-1.6 3.6-3.6 3.6-1.9 0-3.6-1.6-3.6-3.6s1.6-3.6 3.6-3.6c.8 0 1.5.2 2 .7l-.4-.4 5.7-5.7-5.3-5.3c-.5.5-1.2.7-2 .7-1.9 0-3.6-1.5-3.6-3.6 0-1.9 1.6-3.6 3.6-3.6 1.9 0 3.6 1.6 3.6 3.6 0 .5-.1.9-.3 1.3v.1l5.5 5.4 5.3-5.4c-.2-.4-.3-.9-.3-1.4 0-1.9 1.6-3.6 3.6-3.6 1.9 0 3.6 1.6 3.6 3.6s-1.6 3.6-3.6 3.6c-.7 0-1.4-.2-1.9-.7l-5.3 5.3 5.7 5.7-.3.3c.5-.4 1.2-.6 1.9-.6 1.8 0 3.5 1.5 3.5 3.6zM420.4 329l20.5 20.8-17.7 39.2 23.2 12.9 1.9-31.6 25.1-18.4z"/><path class="st2" d="M436.2 352.5c-56.3-27-119.5-42.1-186.1-42.1-66.7 0-129.9 15.1-186.2 42.1l23.6 49.4c49.2-23.6 104.4-36.7 162.7-36.7s113.5 13.2 162.7 36.7l23.3-49.4zm-332.8 34.3c-4.1 1.5-6.2 2.3-10.3 4-1.9.7-3.9-.3-4.6-2-1.9-4.6-2.8-6.8-4.7-11.4 2.4-1 3.6-1.5 6-2.4 1.3 3.2 1.9 4.8 3.2 8 .2.5.9.9 1.6.7 1.2-.5 1.8-.7 2.9-1.2.6-.2.9-.9.7-1.5-1.7-4.6-2.6-6.8-4.3-11.4-5.7-1.2-8.5-1.8-14.3-2.8-1.8-4.3-2.7-6.4-4.4-10.8-.7-1.7.2-3.9 2.2-4.6 4.4-1.9 6.7-2.7 11.2-4.3 2-.8 4.1.3 4.7 2.1.9 2.3 1.2 3.5 2.1 5.8-2.5.9-3.7 1.4-6.3 2.3-.3-.9-.5-1.4-.9-2.4-.2-.5-.9-.9-1.6-.7-1.2.5-1.9.8-3.2 1.2-.6.2-.9 1-.7 1.6.7 1.9 1.1 2.8 1.8 4.7 5.8 1 8.6 1.5 14.3 2.7 2.6 7.1 3.9 10.8 6.4 17.9.8 1.9.1 3.9-1.8 4.5zm19.5-6.6c-4.4-13.8-6.6-20.8-10.9-34.6-3.3 1-4.8 1.5-8.1 2.6-.8-2.3-1.1-3.5-1.9-5.7 9-3 13.6-4.4 22.8-7 .6 2.3.9 3.5 1.6 5.8-3.3.9-4.9 1.3-8.1 2.3 4.2 13.9 6.3 20.8 10.5 34.8-2.4.7-3.5 1.1-5.9 1.8zm29.3-8.1c-2.1-8.8-3.1-13.1-5.2-21.8-4.8-7.1-7.3-10.6-12.4-17.5 2.5-.6 3.7-.9 6.2-1.6 3.1 4.6 4.6 7 7.6 11.6.6-5.5.9-8.3 1.7-13.8 2.5-.5 3.7-.8 6.3-1.3-1.6 8.4-2.2 12.7-3.5 21.2 1.9 8.8 2.9 13.2 4.9 21.9-2.2.5-3.3.8-5.6 1.3zm22-4.6c-3-16.7-4.6-25-7.6-41.7 2.6-.5 4-.7 6.6-1.2 2.4 14.3 3.6 21.5 6 35.8 2.1-.4 3.2-.5 5.3-.9-.3-1.9-.5-2.9-.7-4.8 2.5-.4 3.7-.5 6.2-.9.6 4.3.9 6.5 1.5 10.8-7 1.1-10.4 1.6-17.3 2.9zm40.9-5.4c-5.7.5-8.5.8-14.1 1.4-1.9-16.8-2.9-25.3-4.9-42.1 6.2-.7 9.3-1 15.6-1.6 2.1-.2 3.8 1.3 4 3.3.2 2.4.2 3.6.4 6.1l-6.5.5c-.1-1-.2-1.5-.2-2.4-.1-.6-.5-1.2-1.2-1.1-1.9.2-2.8.2-4.7.4.3 3.3.5 5 .9 8.4 2.4-.3 3.6-.4 6-.6.2 2.5.3 3.7.5 6.2-2.4.2-3.6.3-5.9.5.6 6.3.9 9.4 1.5 15.7 1.8-.2 2.6-.2 4.3-.4.7-.1 1.1-.7 1-1.3-.3-3.5-.5-5.2-.8-8.7 2.5-.2 3.8-.4 6.3-.5.4 5 .5 7.4.9 12.3.1 2-1.2 3.7-3.1 3.9zm46.3-1.2c-2.5-.1-3.7-.1-6.1-.2l.5-42.3c2.7 0 4 0 6.7.1-.4 16.9-.6 25.4-1.1 42.4zm29.9-30.9c-2.6-.2-4-.3-6.6-.5.1-1 .2-1.6.2-2.6 0-.5-.5-1.2-1.2-1.2-1.3-.2-2-.2-3.3-.3-.7 0-1.2.5-1.3 1.2-.1 2-.2 3-.3 5 4.7 3.3 7.1 5 11.5 8.4-.7 7.6-1 11.4-1.7 19-.2 1.9-1.7 3.3-3.6 3.2-4.3-.4-6.5-.5-10.8-.8-1.9-.1-3.3-1.9-3.2-3.7.2-5 .3-7.4.5-12.3 2.6.2 3.8.2 6.4.4-.2 3.4-.3 5.1-.5 8.6-.1.5.4 1.2 1.1 1.2 1.2.1 1.9.2 3.1.2.6.1 1.2-.5 1.2-1.1.4-4.9.5-7.3.9-12.1-4.5-3.5-6.8-5.3-11.5-8.6.2-4.6.3-7 .5-11.6.2-1.9 1.9-3.4 4-3.3 4.7.3 7.1.5 11.9.9 2.1.2 3.5 2.1 3.3 4-.3 2.4-.3 3.6-.6 6zm51 41c-6.9-1.5-10.3-2.2-17.3-3.6 3-16.7 4.6-25 7.6-41.7 2.6.5 4 .8 6.6 1.3-2.8 14.3-4.2 21.4-7 35.6 2.2.4 3.2.6 5.3 1.1.4-1.9.6-2.9 1-4.8 2.5.5 3.7.9 6.1 1.4-.8 4.4-1.3 6.4-2.3 10.7zm9.3 2.2c4-16.4 6.1-24.6 10.2-41.1 2.6.7 3.9 1 6.5 1.7-4.3 16.4-6.5 24.6-10.8 41-2.3-.7-3.6-1-5.9-1.6zm36.2-27.5c-1.8-.5-2.7-.9-4.5-1.4-.9 3.3-1.5 4.8-2.4 8 2.3.7 3.4 1.1 5.7 1.9-.7 2.3-1.1 3.5-1.9 5.9-2.2-.8-3.4-1.1-5.7-1.8-2.6 8.3-3.9 12.5-6.4 20.8-2.4-.8-3.6-1.1-6-1.8 4.7-16.3 7.1-24.4 11.8-40.7 6 1.7 9.1 2.6 15.1 4.6 2 .6 3 2.7 2.4 4.5-.8 2.3-1.2 3.5-1.9 5.8-2.6-.9-3.8-1.2-6.4-2 .3-.9.5-1.4.8-2.3.3-.6.1-1.3-.6-1.5zm36.4 10.4c-.9 2.3-1.4 3.5-2.3 5.7-2.5-1-3.7-1.5-6.2-2.5.4-.9.5-1.4.9-2.2.2-.5-.1-1.3-.7-1.5-1.8-.7-2.6-1-4.4-1.7-1.2 3.1-1.8 4.6-2.9 7.8 2.2.9 3.4 1.2 5.7 2.2-.9 2.3-1.3 3.4-2.2 5.7-2.2-.9-3.3-1.3-5.6-2.2-2.2 5.9-3.3 8.8-5.6 14.7 1.7.6 2.5 1 4.2 1.6.5.2 1.2-.2 1.4-.8 1.3-3.2 1.9-4.8 3.2-8.1 2.4.9 3.6 1.4 6 2.4-1.9 4.6-2.9 6.8-4.7 11.4-.7 1.8-2.7 2.8-4.6 2.1-5.3-2.2-8.1-3.2-13.4-5.1 5.7-16 8.6-23.9 14.3-39.9 6 2.2 8.9 3.3 14.9 5.7 1.8.9 2.7 3 2 4.7z"/><path class="st2" d="M79.6 329l-20.5 20.9 17.7 39.2-23.2 12.8-1.9-31.5L26.6 352z"/><g><path class="st2" d="M60.4 211.5H44.7c-2.8 0-5 2.5-5 5.3v17.4L56.5 246v18.2c0 .9-.8 1.8-1.7 1.8h-4.5c-.9 0-1.6-.9-1.6-1.8v-12.9h-8.9v18.4c0 2.8 2.1 5.3 4.9 5.3h15.9c2.9 0 4.8-2.4 4.8-5.3v-28.5L48.7 230v-7.5c0-.9.7-1.9 1.6-1.9h4.5c.9 0 1.7.9 1.7 1.9v3.8h8.8V217c0-2.8-2.1-5.5-4.9-5.5zM99.6 211.5L88.4 275h8.7l1.6-10h9.5l1.5 10h8.9l-10.5-63.5h-8.5zm.7 44.4l3.5-22 3.2 22h-6.7zM141.6 220.6h11.1v54.5h8.9v-54.5h11.2v-9.1h-31.2zM207.1 211.5L195.9 275h8.7l1.5-10h9.5l1.5 10h8.9l-10.5-63.5h-8.4zm.6 44.4l3.5-22 3.2 22h-6.7zM267.6 241.6l-7.2-30.1h-11.3v63.6h8.6v-39l10.2 39h8.4v-63.6h-8.6zM299.1 211.5h8.9V275h-8.9zM351.7 211.5H336c-2.9 0-5 2.5-5 5.3v17.4l16.7 11.8v18.2c0 .9-.8 1.8-1.6 1.8h-4.6c-.9 0-1.6-.9-1.6-1.8v-12.9H331v18.4c0 2.8 2.1 5.3 4.9 5.3h15.9c2.9 0 4.9-2.4 4.9-5.3v-28.5L340 230v-7.5c0-.9.7-1.9 1.6-1.9h4.6c.9 0 1.6.9 1.6 1.9v3.8h8.9V217c0-2.8-2.1-5.5-5-5.5zM379.6 220.6h11.2v54.5h8.9v-54.5h11.2v-9.1h-31.3zM454.6 211.5h-15.9c-2.8 0-4.9 2.5-4.9 5.3v52.9c0 2.8 2.1 5.3 4.9 5.3h15.8c2.9 0 5-2.4 5-5.3v-52.9c0-2.7-2.1-5.3-4.9-5.3zm-4.1 52.7c0 .9-.6 1.8-1.5 1.8h-4.9c-.9 0-1.4-.9-1.4-1.8v-41.8c0-.9.5-1.9 1.4-1.9h5c.9 0 1.4.9 1.4 1.9v41.8z"/></g></g><circle class="st3" cx="246" cy="-1068.6" r="349.1"/><g class="st4"><path class="st5" d="M-1216 1618.2c-41.1 15.5-62 23.2-103.1 40.3-18.6 7-38.7-3.1-45.7-20.1-18.6-45.7-27.9-68.2-46.5-113.9 24-10.1 35.6-14.7 59.7-24 13.2 31.8 19.4 48 31.8 79.8 2.3 5.4 9.3 9.3 15.5 7 11.6-4.7 17.8-7 29.4-11.6 6.2-2.3 8.5-9.3 7-14.7-17-45.7-25.6-68.2-43.4-113.9-56.6-12.4-85.3-17.8-142.6-27.9-17.8-43.4-27.1-64.3-44.2-107.7-7-17 2.3-38.7 22.5-46.5 44.2-18.6 66.7-27.1 112.4-43.4 20.2-7.7 41.1 3.1 47.3 20.9 8.5 23.3 12.4 34.9 20.9 58.1-24.8 9.3-37.2 14-62.8 23.3-3.1-9.3-5.4-13.9-8.5-24-2.3-5.4-9.3-9.3-16.3-7-12.4 5.4-19.4 7.7-31.8 12.4-6.2 2.3-9.3 10.1-7 16.3 7 18.6 10.9 27.9 17.8 46.5 58.1 10.1 86 15.5 142.6 27.1 25.6 71.3 38.7 107.7 64.3 179 7.1 17.6-.7 37.8-19.3 44zM-961.8 1533.7c-24 7-35.6 10.9-58.9 17.8-44.2-137.9-65.9-207.7-109.3-346.4-32.6 10.1-48.1 15.5-80.6 26.4-7.8-23.3-10.9-34.9-18.6-57.3 89.9-30.2 135.6-44.2 227.8-69.8 6.2 23.3 9.3 34.9 16.3 58.1-32.5 8.5-48.8 13.2-81.4 23.3 41.9 138.7 62.9 208.4 104.7 347.9zM-672 1457.7c-22.5 5.4-33.3 7.8-55.8 13.2-20.9-87.6-31-131-51.9-217.8-48.1-70.5-72.9-106.2-124-175.1l62-15.5c31 46.5 45.7 69.7 75.9 116.2 6.2-55 9.3-82.9 17-137.9 24.8-5.4 37.2-7.7 62.8-13.2-15.5 84.5-22.5 127.1-34.9 211.6 19.5 87.6 29.6 131.8 48.9 218.5zM-334.9 1397.3c-69.7 9.3-104.6 14.7-173.6 27.9-30.2-166.6-45.7-250.3-76-416.9 26.4-4.6 39.5-7 65.9-11.6 24 143.4 36.4 214.7 60.4 358 20.9-3.9 31.8-5.4 53.5-8.5-3.1-19.4-4.7-28.7-7-48.1 24.8-3.9 37.2-5.4 62-9.3 6.3 43.4 8.6 65.1 14.8 108.5zM-68.3 1332.2c1.6 19.4-11.6 37.2-31 38.7-56.6 4.6-85.2 7.7-141 14-19.4-168.2-29.5-252.6-48.8-420.8 62-7 93-10.1 155.8-15.5 20.9-1.5 38 13.2 39.5 32.6 1.6 24 2.3 36.4 3.9 61.2-25.6 2.3-38.7 3.1-65.1 5.4-.8-10.1-1.6-14.7-2.3-24-.8-6.2-5.4-11.6-12.4-10.9-18.6 1.6-27.9 2.3-46.5 3.9 3.1 33.3 4.7 50.4 8.5 83.7 24-3.1 35.6-3.9 59.7-6.2 1.6 24.8 3.1 37.2 5.4 62-24 1.6-35.6 3.1-58.9 5.4 6.2 62.8 9.3 93.8 15.5 156.5 17.8-1.6 26.4-2.3 43.4-3.9 7-.8 10.9-7 10.1-13.2-3.1-34.9-4.7-51.9-7.7-86.8 24.8-2.3 38-3.9 62.8-5.4 3.7 49.7 5.3 73.7 9.1 123.3zM375.8 934.7c-4.7 169.7-7 254.2-11.6 423.9-24.8-.8-37.2-.8-61.2-1.6 2.3-168.9 3.1-254.2 5.4-423.1 27.1 0 40.2 0 67.4.8zM597.4 1044.7c.8-10.1 1.6-15.5 2.3-25.6 0-5.4-4.7-12.4-11.6-12.4-13.2-1.5-20.1-1.5-33.3-3.1-7 0-12.4 5.4-13.2 11.6-.8 20.1-1.6 30.2-3.1 50.4 47.3 33.3 70.5 50.4 115.5 84.5-7 75.9-10.1 113.9-17.1 189.9-2.3 18.6-17 33.3-36.4 31.8-43.4-3.9-65.1-5.4-108.5-7.7-19.4-.8-33.3-18.6-31.8-37.2 2.3-49.6 3.1-73.6 5.4-123.2 25.6 1.6 38 2.3 63.6 3.9-2.3 34.1-3.1 51.1-5.4 86-.8 5.4 3.9 12.4 10.9 12.4 12.4.8 18.6 1.6 31 2.3 6.2.8 12.4-5.4 12.4-10.9 3.9-48.8 5.4-72.8 9.3-120.9-45-34.9-68.2-52.7-115.5-86 2.3-46.5 3.1-69.7 5.4-116.2 1.6-18.6 18.6-34.1 39.5-33.3 47.3 3.1 71.3 4.6 118.5 8.5 20.9 1.6 34.9 20.9 33.3 39.5-2.3 24.8-3.1 37.2-5.4 61.2-26.3-2.4-39.5-3.2-65.8-5.5zM1197.2 1353.9c-9.3 42.6-13.9 63.5-24 106.2-69-15.5-103.1-22.5-172.8-35.6 30.2-166.6 45.7-249.5 76-416.9 26.3 5.4 39.5 7.8 65.9 13.2-27.9 142.6-41.8 213.9-69.7 356.5 21.7 3.9 31.8 6.2 53.5 10.9 3.9-19.4 6.2-28.7 10.1-48.1 24.6 5.3 37 8.4 61 13.8zM1433.6 1087.3c-43.4 164.3-65.1 245.7-108.5 409.9-23.3-6.2-35.6-9.3-58.9-15.5 40.3-164.3 61.2-246.4 102.3-411.5 25.5 7.1 38.7 10.1 65.1 17.1zM1711 1207.4c-7.8 23.3-11.6 34.9-19.4 58.1-25.6-8.5-38-12.4-63.6-20.1 3.1-9.3 4.7-13.9 7.8-23.3 1.6-6.2-.8-13.2-7.8-15.5-17.8-5.4-27.1-8.5-45-13.9-9.3 32.5-14.7 48-24 79.8 23.3 7 34.1 10.9 57.3 18.6-7 23.2-10.9 34.9-18.6 58.9-22.5-7.7-34.1-10.9-56.6-17.8-25.6 82.9-38.7 124.8-63.6 208.5-24-7.8-35.6-10.9-59.7-17.8 47.3-162.7 70.5-244.1 117.8-406.8 60.4 17 90.7 26.3 151.1 46.5 20.4 6.1 30.5 27 24.3 44.8zM1991.5 1311.3c-9.3 23.3-13.9 34.9-23.2 57.4-24.8-10.1-37.2-14.7-62-24.8 3.9-9.3 5.4-13.9 9.3-22.5 1.6-5.4-.8-13.2-7-15.5-17.8-7-26.4-10.1-44.2-17-11.6 31-17.8 46.5-29.5 78.3 22.5 8.5 34.1 12.4 56.6 21.7-9.3 23.3-13.2 34.1-22.5 57.4-22.5-8.5-33.3-13.2-55.8-21.7-22.5 58.9-33.3 88.3-55.8 147.2 17.1 6.2 24.8 10.1 41.8 16.3 5.4 2.3 11.6-1.5 14-7.7 13.2-31.8 19.4-48.1 31.8-80.6 24 9.3 36.4 13.9 60.4 24-19.4 45.7-28.7 68.2-47.3 113.9-7 17.8-27.1 27.9-45.7 20.9-53.5-21.7-80.6-31.8-134.1-51.2 57.4-159.6 86-239.4 143.4-399.1 59.7 21.7 89.1 33.3 148.8 56.6 19.5 8.4 28.8 29.3 21 46.4z"/></g></svg>