<svg id="Слой_1" xmlns="http://www.w3.org/2000/svg" viewBox="0 0 500 500"><style>.st0{display:none}.st1{fill:#fff}</style><path class="st0" d="M-109 0h609v500h-609z"/><path class="st1" d="M403.7 455.5c-3.6.4-7.1 1.4-10.5 2.8-4.7 2-9 4.9-12.6 8.5-3.7 3.6-6.5 7.9-8.5 12.6-1.4 3.4-2.4 6.9-2.8 10.5H130.8c-.4-3.6-1.4-7.1-2.8-10.5-2-4.7-4.9-9-8.5-12.6-3.6-3.7-7.9-6.5-12.6-8.5-3.4-1.4-6.9-2.4-10.5-2.8V327.1l-10.1 1.5v136.7h5c16.4 0 29.8 13.4 29.8 29.8v5H379v-5c0-16.4 13.4-29.8 29.8-29.8h5V280.9l-10.1 1.5v173.1zm5-420.7C392.3 34.8 379 21.4 379 5V0H121v5c0 16.4-13.4 29.8-29.8 29.8h-5v167.7l10.1-1.5V44.5c3.6-.4 7.1-1.4 10.5-2.8 4.7-2 9-4.9 12.6-8.5 3.7-3.6 6.5-7.9 8.5-12.6 1.4-3.4 2.4-6.9 2.8-10.5h238.4c.4 3.6 1.4 7.1 2.8 10.5 2 4.7 4.9 9 8.5 12.6 3.6 3.7 7.9 6.5 12.6 8.5 3.4 1.4 6.9 2.4 10.5 2.8v111.8l10.1-1.5v-120h-4.9z"/><path class="st1" d="M7.9 203.7v146.4L492 279.7V133.3L7.9 203.7zM482 271l-49.5 7.2-45.3 6.6L18 338.5V212.4l464-67.5V271z"/><path class="st1" d="M78.9 289.4l3.5 25.8-40.4 5.5-13.4-100.4 14-1.8 11.5 85.9 12.3-1.6-1.5-11.5zM138 205.7l-25.1 3.4c-4.4.6-7.2 4.9-6.6 9.4l11.2 83.5c.6 4.4 4.4 8 8.9 7.4l24.9-3.3c4.4-.6 7.2-4.9 6.6-9.3l-11.2-83.5c-.6-4.6-4.2-8.2-8.7-7.6zm4.7 84c.2 1.4-.6 3-2.1 3.2l-7.7 1c-1.4.2-2.3-1.1-2.5-2.6l-8.8-65.9c-.2-1.4.3-3 1.8-3.2l8-1.1c1.4-.2 2.3 1.1 2.5 2.6l8.8 66zM212.9 195.7l-13.3 1.8-4.2 102.7 13.8-1.8.3-16.1 15-2 4.4 15.5 14-1.9-30-98.2zm-2.9 71.5l.8-35.4 9.7 34-10.5 1.4zM298.9 184.2l-32.8 4.4 13.4 100.3 32.8-4.4c4.4-.6 7.1-4.9 6.5-9.3l-11.2-83.7c-.6-4.5-4.3-7.9-8.7-7.3zm4.7 83.9c.2 1.4-.5 3-1.9 3.2l-10 1.3L282 201l10-1.3c1.4-.2 2.5 1.1 2.7 2.6l8.9 65.8z"/><path transform="scale(-1) rotate(82.375 309.419 -414.106)" class="st1" d="M355.4 263.7h13.9v14.2h-13.9z"/><path transform="scale(-1) rotate(82.375 301.686 -471.882)" class="st1" d="M406 256.9h13.9v14.2H406z"/><path transform="scale(-1) rotate(82.375 293.954 -529.659)" class="st1" d="M456.6 250.1h13.9v14.2h-13.9z"/><g><path class="st1" d="M147.3 105.3h-2.8l-3.7 21.2h2.9l.5-3.3h3.2l.5 3.3h3l-3.6-21.2zm-2.6 14.8l1.2-7.3 1.1 7.3h-2.3zM167.1 121.1v5.4h-8.6v-21.2h3v18.2h2.6v-2.4zM180.4 110.1v-1.2c0-.3-.2-.6-.5-.6h-2.1v4.2h2.7v3.1h-2.7v7.9h2.1c.3 0 .5-.3.5-.6v-4.4h3v6.2c0 1-.7 1.8-1.7 1.8h-6.9v-21.2h6.9c.9 0 1.6.8 1.6 1.8v3.1h-2.9zM203.2 126.5h-3.1l-3.1-8.4-3.1 8.4h-3l4.5-12.1-3.3-9.1h3l1.9 5.3 1.9-5.3h3l-3.2 9.1zM233.2 114.3l3.7 12.2h-3.2l-3.4-11.2v11.2h-3v-21.2h3v8.4l3.3-8.4h3.3zM253.1 105.3v21.2h-3v-10.6h-2.6v10.6h-3v-21.2h3v7.2h2.6v-7.2zM272.2 105.3v21.2h-3v-12.4l-2.7 12.4-2.9-12.3v12.3h-2.9v-21.2h4l1.8 10 2.1-10zM279.9 105.3h3v21.2h-3zM299.1 121.1v5.4h-8.5v-21.2h2.9v18.2h2.7v-2.4zM312.4 110.1v-1.2c0-.3-.2-.6-.5-.6h-2.1v4.2h2.7v3.1h-2.7v7.9h2.1c.3 0 .5-.3.5-.6v-4.4h3v6.2c0 1-.7 1.8-1.7 1.8h-6.9v-21.2h6.9c.9 0 1.6.8 1.6 1.8v3.1h-2.9zM332.5 105.3l-3.5 21.2h-2.5l-3.6-21.2h3.3l1.5 11 1.7-11zM347 105.3h-5.3c-.9 0-1.6.8-1.6 1.8v17.7c0 .9.7 1.8 1.6 1.8h5.3c.9 0 1.6-.8 1.6-1.8v-17.7c0-1-.7-1.8-1.6-1.8zm-1.4 17.6c0 .3-.2.6-.5.6h-1.6c-.3 0-.5-.3-.5-.6V109c0-.3.2-.6.5-.6h1.7c.3 0 .5.3.5.6v13.9zM356.3 105.3h3v21.2h-3z"/></g><g><path class="st1" d="M183.6 353.3V352c0-.3-.2-.6-.5-.6h-1.5c-.3 0-.5.3-.5.6v2.5l5.6 3.8v9.5c0 .9-.7 1.8-1.6 1.8h-5.3c-.9 0-1.6-.8-1.6-1.8v-6.2h3v4.3c0 .3.2.6.5.6h1.5c.3 0 .5-.3.5-.6V360l-5.7-4v-5.8c0-.9.7-1.8 1.7-1.8h5.2c.9 0 1.6.9 1.6 1.8v3.1h-2.9zM200.8 348.4H198l-3.7 21.2h2.9l.5-3.3h3.2l.5 3.3h3l-3.6-21.2zm-2.6 14.8l1.2-7.3 1.1 7.3h-2.3zM222.5 348.4v3.1h-3.8v18.2h-2.9v-18.2H212v-3.1zM236.7 348.4h-2.8l-3.7 21.2h2.9l.5-3.3h3.2l.5 3.3h3l-3.6-21.2zm-2.6 14.8l1.2-7.3 1.1 7.3h-2.3zM257 348.4v21.3h-2.8l-3.4-13v13h-2.9v-21.3h3.8l2.4 10.1v-10.1zM264.6 348.4h3v21.2h-3zM280.9 353.3V352c0-.3-.2-.6-.5-.6h-1.5c-.3 0-.5.3-.5.6v2.5l5.6 3.8v9.5c0 .9-.7 1.8-1.6 1.8h-5.3c-.9 0-1.6-.8-1.6-1.8v-6.2h3v4.3c0 .3.2.6.5.6h1.5c.3 0 .5-.3.5-.6V360l-5.6-3.9v-5.8c0-.9.7-1.8 1.7-1.8h5.2c.9 0 1.6.9 1.6 1.8v3.1h-3zM301.9 348.4v3.1h-3.7v18.2h-3v-18.2h-3.7v-3.1zM316.5 348.4h-5.3c-.9 0-1.6.8-1.6 1.8v17.7c0 .9.7 1.8 1.6 1.8h5.3c.9 0 1.6-.8 1.6-1.8v-17.7c.1-.9-.6-1.8-1.6-1.8zm-1.3 17.6c0 .3-.2.6-.5.6H313c-.3 0-.5-.3-.5-.6v-13.9c0-.3.2-.6.5-.6h1.7c.3 0 .5.3.5.6V366z"/></g><g><path class="st1" d="M150.3 357.9h19.5v2.4h-19.5z"/></g><g><path class="st1" d="M327 357.9h19.5v2.4H327z"/></g><path class="st1" d="M432.5 278.2l-45.3 6.6z"/></svg>