<svg id="Слой_1" xmlns="http://www.w3.org/2000/svg" viewBox="0 0 5000 5000"><style>.st0{display:none;fill:#fff}.st1{fill:none;stroke:#fff;stroke-miterlimit:10}.st1,.st2{display:none}.st2,.st3{fill:#fff}</style><path class="st0" d="M0 0h5000v5000H0z"/><path class="st1" d="M1451 1451h2098v2098H1451z"/><path class="st2" d="M4903.5 2268.3c61.5 61.5 96 144.9 96 231.8s-34.5 170.3-96 231.8L2731.8 4903.4c-61.5 61.5-144.9 96-231.8 96s-170.3-34.5-231.8-96-96-144.9-96-231.8 34.5-170.3 96-231.8l1939.9-1939.9-622.2-622.2L559.6 4904c-61.5 61.5-144.9 96-231.8 96s-170.3-34.5-231.8-96-96-144.9-96-231.8 34.5-170.3 96-231.8l3026.3-3026.2L2500 791.8 560.1 2731.7c-61.5 61.5-144.9 96-231.8 96s-170.3-34.5-231.8-96-96-144.9-96-231.8 34.5-170.3 96-231.8L2268.2 96.6c61.5-61.5 144.9-96 231.8-96s170.3 34.5 231.8 96l854 854L4440.4 96c61.5-61.5 144.9-96 231.8-96s170.3 34.5 231.8 96 96 144.9 96 231.8-34.5 170.3-96 231.8l-854.6 854.6 854.1 854.1z"/><path class="st3" d="M4903.5 2268.3c61.5 61.5 96 144.9 96 231.8s-34.5 170.3-96 231.8L2731.8 4903.4c-61.5 61.5-144.9 96-231.8 96s-170.3-34.5-231.8-96-96-144.9-96-231.8 34.5-170.3 96-231.8l1939.9-1939.9-622.2-622.2L559.6 4904c-61.5 61.5-144.9 96-231.8 96s-170.3-34.5-231.8-96-96-144.9-96-231.8 34.5-170.3 96-231.8l3026.3-3026.2L2500 791.8 560.1 2731.7c-61.5 61.5-144.9 96-231.8 96s-170.3-34.5-231.8-96-96-144.9-96-231.8 34.5-170.3 96-231.8L2268.2 96.6c61.5-61.5 144.9-96 231.8-96s170.3 34.5 231.8 96l854 854L4440.4 96c61.5-61.5 144.9-96 231.8-96s170.3 34.5 231.8 96 96 144.9 96 231.8-34.5 170.3-96 231.8l-854.6 854.6 854.1 854.1z"/></svg>