<?xml version="1.0" encoding="utf-8"?>
<!-- Svg Vector Icons : http://www.onlinewebfonts.com/icon -->
<!DOCTYPE svg PUBLIC "-//W3C//DTD SVG 1.1//EN" "http://www.w3.org/Graphics/SVG/1.1/DTD/svg11.dtd">
<svg version="1.1" xmlns="http://www.w3.org/2000/svg" xmlns:xlink="http://www.w3.org/1999/xlink" x="0px" y="0px" viewBox="0 0 1000 1000" enable-background="new 0 0 1000 1000" xml:space="preserve" style="fill: white;">
<metadata> Svg Vector Icons : http://www.onlinewebfonts.com/icon </metadata>
<g><path d="M102.2,408.1C50.9,408.1,10,449.3,10,500c0,51.1,41.3,91.9,92.2,91.9h305.9v305.9c0,51.3,41.1,92.2,91.9,92.2c51.1,0,91.9-41.3,91.9-92.2V591.9h305.9c51.3,0,92.2-41.1,92.2-91.9c0-51.1-41.3-91.9-92.2-91.9H591.9V102.2c0-51.3-41.1-92.2-91.9-92.2c-51.1,0-91.9,41.3-91.9,92.2v305.9H102.2z"/></g>
</svg>