<?xml version="1.0" encoding="utf-8"?>
<!-- Svg Vector Icons : http://www.onlinewebfonts.com/icon -->
<!DOCTYPE svg PUBLIC "-//W3C//DTD SVG 1.1//EN" "http://www.w3.org/Graphics/SVG/1.1/DTD/svg11.dtd">
<svg version="1.1" xmlns="http://www.w3.org/2000/svg" xmlns:xlink="http://www.w3.org/1999/xlink" x="0px" y="0px" viewBox="0 0 1000 1000" enable-background="new 0 0 1000 1000" xml:space="preserve" style="fill: white;">
<metadata> Svg Vector Icons : http://www.onlinewebfonts.com/icon </metadata>
<g><path d="M468,286.7c0-19.2,15.7-35,35-35l0,0c19.2,0,34.9,15.7,34.9,35v530c0,19.2-15.7,35-34.9,35l0,0c-19.2,0-35-15.7-35-35V286.7L468,286.7z M303.4,286.7c0-19.2,15.7-35,34.9-35l0,0c19.2,0,34.9,15.7,34.9,35v530c0,19.2-15.7,35-34.9,35l0,0c-19.2,0-34.9-15.7-34.9-35V286.7L303.4,286.7z M632.5,286.7c0-19.2,15.7-35,35-35l0,0c19.2,0,34.9,15.7,34.9,35v530c0,19.2-15.7,35-34.9,35l0,0c-19.2,0-35-15.7-35-35V286.7L632.5,286.7z M922.3,114.8H784.7h-50.3V70.9c0-34.2-30.7-60.9-69.9-60.9H341.3c-39.2,0-69.9,26.8-69.9,60.9v43.9h-50.3H77.7c-19.3,0-35,15.6-35,34.9c0,19.3,15.7,35,35,35h73.5v737.1c0,37.6,31.4,68.2,69.9,68.2h563.5c38.5,0,69.9-30.6,69.9-68.2V184.7h67.7c19.3,0,34.9-15.6,34.9-35C957.2,130.5,941.6,114.8,922.3,114.8L922.3,114.8z M341.3,79.9h323.3v35H341.3V79.9L341.3,79.9z M747.9,920.2c0,0-452.1,1.5-490.4,1.5c-38.2,0-36.4-39.5-36.4-39.5v-664c0-40.4,34.2-33.5,34.2-33.5h85.9h323.3h79c0,0,41.2-2.5,41.2,33.5c0,36,0.6,633.4,0.6,667.3C785.3,919.4,747.9,920.2,747.9,920.2L747.9,920.2z"/></g>
</svg>