<svg xmlns="http://www.w3.org/2000/svg" 
    xmlns:xlink="http://www.w3.org/1999/xlink" width="218px" height="188px" viewBox="0 0 218 188" version="1.1" class="mdl-js">
    <!-- Generator: Sketch 44.1 (41455) - http://www.bohemiancoding.com/sketch -->
    <title>logo</title>
    <desc>Created with Sketch.</desc>
    <defs>
        <polygon id="path-1" points="0 70.0395276 0 0.610940328 217.308951 0.610940328 217.308951 70.0395276 1.0324987e-14 70.0395276"/>
    </defs>
    <g id="Page-1" stroke="none" stroke-width="1" fill="none" fill-rule="evenodd">
        <g id="logo">
            <g id="Fill-1-Clipped-Copy-2">
                <mask id="mask-2" fill="white">
                    <use xlink:href="#path-1"/>
                </mask>
                <g id="path-1"/>
                <path d="M215.669354,0.92519659 C215.355302,1.23168839 215.055525,1.53409364 214.755748,1.81810938 C212.528833,3.95946544 210.246858,6.07221561 207.920017,8.15227331 C198.255778,16.2375271 186.790838,23.5667677 174.555042,23.9835966 C170.739513,24.118453 165.549497,23.2173671 162.924919,20.0502851 C162.386544,19.4005225 151.162241,29.140832 152.049336,30.2155966 C155.271429,34.1080425 161.793108,34.5085251 166.336666,33.9527533 C171.47774,33.3193369 176.290486,31.508992 180.891145,29.2205199 C155.554891,46.1204779 126.621314,57.6997382 96.1113576,57.4606746 C69.2986511,57.2502169 43.7034063,46.8826209 22.7230957,30.4934825 C19.2297761,27.7677487 16.0280763,24.8254274 12.9344594,21.7891153 C12.9344594,21.7891153 10.8360205,23.047775 6.19253608,27.8290471 C1.54089451,32.6082759 -0.000815719697,34.8313631 -0.000815719697,34.8313631 C6.29450104,40.8038668 12.8732804,46.377931 20.4635522,51.2205015 C45.1635446,66.98031 74.2602662,73.0815402 103.20608,68.614933 C147.550642,61.7719927 185.265442,32.3712556 217.009174,2.22267856 C217.164161,2.0551297 217.308951,1.79154675 217.308951,1.55452643 C217.308951,1.03349036 216.892934,0.610531672 216.372913,0.610531672 C216.091489,0.610531672 215.838616,0.731085115 215.669354,0.92519659 Z" id="Fill-1" fill="#5b9d32" fill-rule="nonzero" mask="url(#mask-2)"/>
            </g>
            <path d="M17.0387265,156.338399 L9.4773461,172.553056 L24.6491201,172.553056 L17.0387265,156.338399 Z M34.1220105,186.694149 L31.2792523,186.694149 L25.6828505,174.77442 L8.44361582,174.77442 L2.85166971,186.694149 L0,186.694149 L16.3213535,152 L17.81848,152 L34.1220105,186.694149 Z" id="Fill-18-Copy-2" fill="#242249" fill-rule="nonzero"/>
            <polygon id="Fill-19-Copy-2" fill="#242249" fill-rule="nonzero" points="40 186.450711 42.7402763 186.450711 42.7402763 152 40 152"/>
            <path d="M57.744732,167.710394 L63.5951107,167.710394 C69.8108597,167.710394 72.8095686,165.080404 72.8095686,160.94197 C72.8095686,157.055669 69.9623547,154.221364 63.4881733,154.221364 L57.744732,154.221364 L57.744732,167.710394 Z M64.0585072,152 C72.7070867,152 75.7592645,156.299276 75.7592645,160.894152 C75.7592645,164.880437 73.5358533,167.662576 69.0311062,169.279695 C70.6841834,170.144766 72.083284,172.105305 73.7408169,174.530982 L81.7121251,186.450713 L78.5039965,186.450713 L72.3417166,177.004479 C68.0998579,170.488186 66.7542261,169.936106 62.5034559,169.936106 L57.744732,169.936106 L57.744732,186.450713 L55,186.450713 L55,152 L64.0585072,152 Z" id="Fill-20-Copy-2" fill="#242249" fill-rule="nonzero"/>
            <path d="M90.744732,168.110327 L97.3213954,168.110327 C103.893603,168.110327 106.330889,165.032586 106.330889,161.13759 C106.330889,157.412131 103.835678,154.225712 97.6332969,154.225712 L90.744732,154.225712 L90.744732,168.110327 Z M97.7313231,152 C106.018988,152 109.280585,156.142781 109.280585,161.094119 C109.280585,165.536848 106.638335,170.327344 97.4773461,170.327344 L90.744732,170.327344 L90.744732,186.446366 L88,186.446366 L88,152 L97.7313231,152 Z" id="Fill-21-Copy-2" fill="#242249" fill-rule="nonzero"/>
            <path d="M132.740817,154.473495 C123.887274,154.473495 116.954152,161.08977 116.954152,169.679626 C116.954152,178.260788 123.887274,184.877063 132.740817,184.877063 C141.59436,184.877063 148.433912,178.260788 148.433912,169.679626 C148.433912,161.08977 141.59436,154.473495 132.740817,154.473495 M132.642791,187.346213 C122.176272,187.346213 114,179.573609 114,169.679626 C114,159.772602 122.176272,152 132.642791,152 C143.153867,152 151.383608,159.772602 151.383608,169.679626 C151.383608,179.573609 143.153867,187.346213 132.642791,187.346213" id="Fill-22-Copy-2" fill="#242249" fill-rule="nonzero"/>
            <path d="M162.744732,167.710394 L168.590655,167.710394 C174.806404,167.710394 177.809569,165.080404 177.809569,160.94197 C177.809569,157.055669 174.962355,154.221364 168.488173,154.221364 L162.744732,154.221364 L162.744732,167.710394 Z M169.058507,152 C177.702631,152 180.759265,156.299276 180.759265,160.894152 C180.759265,164.880437 178.526942,167.662576 174.031106,169.279695 C175.684183,170.144766 177.078828,172.105305 178.740817,174.530982 L186.712125,186.450713 L183.503997,186.450713 L177.341717,177.004479 C173.099858,170.488186 171.754226,169.936106 167.507912,169.936106 L162.744732,169.936106 L162.744732,186.450713 L160,186.450713 L160,152 L169.058507,152 Z" id="Fill-23-Copy-2" fill="#242249" fill-rule="nonzero"/>
            <polygon id="Fill-24-Copy-2" fill="#242249" fill-rule="nonzero" points="217.251892 154.225712 203.996085 154.225712 203.996085 186.446364 201.260264 186.446364 201.260264 154.225712 188 154.225712 188 152 217.251892 152"/>
            <polygon id="Fill-25-Copy-2" fill="#5b9d32" fill-rule="nonzero" points="28.6177563 139.089343 21.9483461 139.089343 4.83542905 121.750611 4.83542905 139.089343 0 139.089343 0 104 4.83542905 104 4.83542905 120.049953 18.9893536 104 25.0092282 104 10.362847 120.621268"/>
            <polygon id="Fill-26-Copy-2" fill="#5b9d32" fill-rule="nonzero" points="64.5116241 139.089343 59.6804398 139.089343 59.6804398 123.805571 40.8311823 123.805571 40.8311823 139.089343 36 139.089343 36 104 40.8311823 104 40.8311823 119.283772 59.6804398 119.283772 59.6804398 104 64.5116241 104"/>
            <path d="M80.054836,124.43003 L90.5025875,124.43003 L85.0813038,111.71496 L80.054836,124.43003 Z M101.905539,139.297497 L96.9724675,139.297497 L92.489401,128.960688 L78.1826462,128.960688 L73.945808,139.297497 L69,139.297497 L83.4638339,104 L86.8643423,104 L101.905539,139.297497 Z" id="Fill-27-Copy-2" fill="#5b9d32" fill-rule="nonzero"/>
            <path d="M112.831182,119.328061 L115.951499,119.328061 C121.130799,119.328061 122.55723,116.608781 122.55723,113.614914 C122.55723,110.381895 120.634095,108.318076 115.951499,108.318076 L112.831182,108.318076 L112.831182,119.328061 Z M116.482166,104 C123.295917,104 127.537,107.75562 127.537,113.827498 C127.537,117.893132 125.520469,120.922426 121.916186,122.419359 C124.977066,124.527466 126.849255,127.764916 129.404943,132.140564 C130.839865,134.558686 131.68044,135.745604 133.998388,139.089343 L128.233233,139.089343 L123.788375,131.883695 C119.360496,124.682474 117.335476,123.863146 114.864696,123.863146 L112.831182,123.863146 L112.831182,139.089343 L108,139.089343 L108,104 L116.482166,104 Z" id="Fill-28-Copy-2" fill="#5b9d32" fill-rule="nonzero"/>
            <polygon id="Fill-29-Copy-2" fill="#5b9d32" fill-rule="nonzero" points="169.617756 139.089343 162.952591 139.089343 145.843918 121.750611 145.843918 139.089343 141 139.089343 141 104 145.843918 104 145.843918 120.049953 159.997843 104 166.017718 104 151.371336 120.621268"/>
            <polygon id="Fill-30-Copy-2" fill="#5b9d32" fill-rule="nonzero" points="175 139.0982 179.843918 139.0982 179.843918 104 175 104"/>
            <polygon id="Fill-31-Copy-2" fill="#5b9d32" fill-rule="nonzero" points="203.533656 139.403788 202.54874 139.403788 188 104 192.835429 104 202.947801 128.650673 213.000737 104 217.797957 104"/>
        </g>
    </g>
</svg>