<?xml version="1.0" standalone="no"?>
<!DOCTYPE svg PUBLIC "-//W3C//DTD SVG 20010904//EN"
 "http://www.w3.org/TR/2001/REC-SVG-20010904/DTD/svg10.dtd">
<svg version="1.0" xmlns="http://www.w3.org/2000/svg"
 width="1280.000000pt" height="1256.000000pt" viewBox="0 0 1280.000000 1256.000000"
 preserveAspectRatio="xMidYMid meet">
<g transform="translate(0.000000,1256.000000) scale(0.100000,-0.100000)"
fill="#ffffff" stroke="none">
<path d="M11390 12535 c-731 -120 -1658 -734 -3050 -2020 -643 -595 -1534
-1493 -2355 -2375 -502 -540 -1223 -1345 -1624 -1815 -52 -60 -100 -116 -106
-123 -10 -11 -64 13 -291 126 -824 412 -1507 684 -2029 807 -217 51 -340 67
-560 72 -182 5 -226 2 -330 -15 -348 -60 -622 -221 -812 -479 -242 -328 -302
-805 -142 -1126 55 -109 114 -180 276 -333 490 -463 730 -706 1022 -1034 767
-859 1480 -1908 2416 -3555 82 -143 168 -285 191 -316 315 -412 914 -465 1302
-114 126 114 172 196 325 575 432 1073 951 2174 1485 3150 884 1615 1867 3042
2971 4310 496 570 906 993 1701 1759 675 650 793 785 915 1044 74 155 98 263
99 442 0 127 -3 164 -23 240 -102 392 -412 671 -856 771 -99 22 -413 27 -525
9z"/>
</g>
</svg>
