<svg xmlns="http://www.w3.org/2000/svg" viewBox="4020 520 40 40"><style>.st0{fill:#222}</style><path class="st0" d="M4059.2 538.1c.5.5.8 1.2.8 1.9s-.3 1.4-.8 1.9l-17.4 17.4c-.5.5-1.2.8-1.9.8a2.732 2.732 0 0 1-2.7-2.7c0-.7.3-1.4.8-1.9l15.5-15.5-5-5-24.2 24.2c-.5.5-1.2.8-1.9.8a2.732 2.732 0 0 1-2.7-2.7c0-.7.3-1.4.8-1.9l24.2-24.2-5-5-15.5 15.5c-.5.5-1.2.8-1.9.8a2.732 2.732 0 0 1-2.7-2.7c0-.7.3-1.4.8-1.9l17.4-17.4c.5-.5 1.2-.8 1.9-.8s1.4.3 1.9.8l6.8 6.8 6.8-6.8c.5-.5 1.2-.8 1.9-.8a2.732 2.732 0 0 1 2.7 2.7c0 .7-.3 1.4-.8 1.9l-6.8 6.8 7 7z"/></svg>